<svg version="1.1" id="Layer_1" xmlns="http://www.w3.org/2000/svg" xmlns:xlink="http://www.w3.org/1999/xlink" x="0" y="0" width="129" height="20" viewBox="0 0 129 20" style="enable-background:new 0 0 129 20" xml:space="preserve"><style>.st2{fill:#ed2e38}.st4{enable-background:new}.st5{fill:#010101}.st6{font-family:&quot;Verdana&quot;}.st7{font-size:11px}.st8{fill:#fff}</style><defs><path id="SVGID_1_" d="M3 0h123c1.7 0 3 1.3 3 3v14c0 1.7-1.3 3-3 3H3c-1.7 0-3-1.3-3-3V3c0-1.7 1.3-3 3-3z"/></defs><clipPath id="SVGID_00000108299762476955559520000009552717747636670109_"><use xlink:href="#SVGID_1_" style="overflow:visible"/></clipPath><g style="clip-path:url(#SVGID_00000108299762476955559520000009552717747636670109_)"><path style="fill:#555" d="M0 0h70v20H0z"/><path class="st2" d="M70 0h59v20H70z"/><linearGradient id="SVGID_00000076599176780260992410000001895255709385480846_" gradientUnits="userSpaceOnUse" x1="-887.562" y1="524.55" x2="-887.562" y2="523.55" gradientTransform="matrix(129 0 0 -20 114560 10491)"><stop offset="0" style="stop-color:#bbb;stop-opacity:.1"/><stop offset="1" style="stop-color:#000;stop-opacity:.1"/></linearGradient><path style="fill:url(#SVGID_00000076599176780260992410000001895255709385480846_)" d="M0 0h129v20H0z"/></g><g text-rendering="geometricPrecision"><g class="st4"><text transform="translate(22.554 15)" class="st5 st6 st7">Support</text></g><text transform="translate(22.554 14)" class="st8 st6 st7">Support</text><g class="st4"><text transform="translate(73.93 15)" class="st5 st6 st7">Palestine</text></g><text transform="translate(73.93 14)" class="st8 st6 st7">Palestine</text></g><path style="fill:#009639" d="M3.9 6.9h14.7V15H3.9z"/><path class="st8" d="M3.9 5.9h14.7v5.4H3.9z"/><path d="M3.9 5.9h14.7v2.7H3.9z"/><path class="st2" d="M3.9 5.9 8.8 10l-4.9 4.1V5.9z"/></svg>
